<?xml version="1.0" standalone="no"?>
<!DOCTYPE svg PUBLIC "-//W3C//DTD SVG 20010904//EN"
 "http://www.w3.org/TR/2001/REC-SVG-20010904/DTD/svg10.dtd">
<svg version="1.0" xmlns="http://www.w3.org/2000/svg"
 width="1080.000000pt" height="1080.000000pt" viewBox="0 0 1080.000000 1080.000000"
 preserveAspectRatio="xMidYMid meet">
<metadata>
Created by potrace 1.16, written by Peter Selinger 2001-2019
</metadata>
<g transform="translate(0.000000,1080.000000) scale(0.100000,-0.100000)"
fill="#000000" stroke="none">
<path d="M4474 10265 c-4 -8 1 -33 9 -54 53 -131 63 -353 24 -502 -33 -125
-64 -184 -138 -263 -100 -108 -168 -145 -509 -280 -257 -102 -381 -157 -605
-267 -502 -247 -795 -456 -1170 -833 -304 -306 -507 -576 -639 -851 -200 -415
-246 -550 -316 -923 -60 -326 -62 -620 -4 -952 42 -243 74 -351 164 -550 202
-451 483 -790 880 -1063 244 -167 573 -301 865 -351 608 -103 1200 -14 1660
251 395 228 707 559 913 969 80 159 130 338 166 594 38 265 42 328 23 336 -46
17 -181 -48 -747 -361 -704 -388 -886 -464 -1274 -530 -113 -19 -375 -19 -518
0 -137 18 -243 51 -395 125 -376 181 -659 534 -778 972 -121 442 13 866 439
1388 156 191 563 590 602 590 7 0 43 -48 80 -107 72 -113 201 -280 250 -323
74 -65 194 -159 239 -188 135 -84 350 -161 516 -183 49 -7 147 -9 239 -6 209
7 322 34 528 126 218 97 207 95 422 71 194 -22 275 -19 390 16 198 59 389 229
478 425 103 226 118 296 148 666 9 103 11 103 150 59 186 -59 293 -96 328
-111 17 -8 72 -30 121 -49 200 -76 488 -228 702 -369 151 -100 423 -310 508
-393 228 -223 377 -402 492 -589 94 -154 273 -544 273 -594 0 -12 -3 -11 230
-66 237 -55 423 -117 598 -196 35 -16 68 -29 73 -29 28 0 -21 390 -71 557
-111 374 -297 736 -509 993 -315 381 -594 638 -1016 937 -93 66 -192 133 -220
148 -27 16 -93 54 -145 86 -176 105 -366 191 -710 322 -262 100 -432 151 -719
216 -151 35 -653 104 -688 95 -33 -9 -71 14 -100 58 -33 51 -91 124 -188 233
-39 44 -109 127 -155 185 -278 350 -456 480 -757 555 -115 29 -132 30 -139 10z
m771 -1745 c206 -20 480 -61 503 -76 38 -25 28 -55 -47 -139 -97 -110 -245
-221 -369 -277 -73 -33 -218 -86 -272 -99 -75 -19 -260 -39 -353 -39 -252 0
-501 103 -596 246 -35 54 -45 95 -39 164 12 127 126 182 438 214 165 16 584
20 735 6z"/>
<path d="M5829 6711 c-75 -11 -163 -24 -195 -31 -75 -15 -427 -107 -649 -170
-505 -143 -863 -145 -1250 -8 -128 46 -223 89 -305 138 -44 27 -80 47 -80 45
0 -12 44 -168 65 -231 84 -249 181 -430 317 -591 87 -102 177 -176 298 -243
212 -117 395 -164 630 -163 263 0 395 42 880 280 284 139 437 200 615 246 111
29 132 32 290 32 144 0 185 -4 270 -24 184 -43 331 -134 443 -272 88 -109 140
-278 149 -490 5 -98 2 -136 -20 -245 -28 -142 -41 -234 -32 -234 6 0 136 136
254 265 154 171 254 328 312 495 43 125 23 295 -52 427 -34 60 -124 180 -178
237 -150 160 -584 393 -880 471 -286 76 -621 101 -882 66z"/>
<path d="M6701 5455 c-97 -217 -163 -545 -162 -815 1 -516 150 -938 420 -1193
84 -79 271 -204 386 -258 250 -117 556 -170 857 -149 150 11 225 25 353 66
365 119 749 456 984 865 159 275 278 642 296 906 7 112 -8 380 -24 396 -12 12
-11 12 -202 -149 -160 -134 -378 -297 -513 -383 -49 -31 -161 -104 -250 -162
-157 -104 -371 -227 -531 -307 -121 -60 -256 -107 -396 -136 -119 -25 -134
-26 -240 -17 -126 11 -181 26 -281 77 -108 54 -137 76 -236 176 -103 104 -153
173 -213 290 -68 135 -79 175 -184 678 -36 174 -37 176 -64 115z"/>
<path d="M5611 3765 c-205 -37 -340 -181 -360 -385 -29 -284 162 -518 457
-558 144 -20 282 16 375 99 71 63 108 116 137 196 20 55 22 76 18 186 -3 111
-7 129 -33 183 -44 91 -144 189 -235 232 -136 64 -211 74 -359 47z"/>
<path d="M7249 2078 c-7 -12 -15 -64 -17 -113 -3 -73 -1 -93 11 -103 13 -11
21 -5 50 40 54 80 73 88 237 95 l140 6 0 -424 c0 -463 -7 -571 -41 -625 -12
-19 -19 -38 -15 -41 9 -9 336 -16 336 -7 0 4 -14 22 -31 40 -44 45 -46 87 -40
599 l6 440 155 -3 c173 -4 181 -6 230 -74 33 -45 31 -46 55 52 9 35 23 76 31
91 8 16 11 30 6 32 -4 3 -253 8 -554 12 l-546 7 -13 -24z"/>
<path d="M8550 2085 c0 -6 13 -19 30 -28 16 -10 33 -29 36 -41 3 -13 4 -255 2
-537 -3 -474 -4 -516 -21 -540 -16 -24 -16 -27 -2 -33 9 -3 167 -6 350 -6
l333 0 25 30 c62 73 73 195 13 135 -33 -33 -91 -48 -206 -52 -120 -5 -225 8
-248 30 -9 10 -15 69 -19 225 l-6 212 122 0 c117 0 124 -1 144 -24 11 -13 31
-50 43 -82 16 -45 27 -60 44 -62 22 -4 22 -3 15 95 -7 105 -19 180 -29 190 -3
3 -44 0 -90 -7 -93 -14 -213 -8 -232 12 -14 15 -26 328 -14 348 6 10 45 12
156 8 168 -5 193 -13 243 -77 35 -43 69 -58 78 -34 7 18 -8 111 -25 158 -6 17
-14 43 -17 58 l-6 28 -292 -6 c-160 -4 -322 -2 -359 2 -49 7 -68 6 -68 -2z"/>
<path d="M6200 2079 c0 -4 27 -31 59 -60 56 -49 60 -56 70 -114 7 -38 11 -233
11 -501 0 -382 -2 -442 -16 -462 -8 -12 -12 -27 -9 -32 9 -14 295 -13 295 1 0
6 -11 24 -24 40 -21 25 -25 42 -31 154 -4 69 -3 164 1 213 8 78 11 87 30 90
31 4 98 -67 211 -226 53 -74 126 -166 162 -204 l66 -69 128 -6 c144 -7 153 -2
81 48 -45 31 -116 121 -206 261 -26 40 -75 106 -109 147 l-62 74 56 52 c76 70
109 142 115 251 9 178 -72 283 -259 334 -50 14 -569 22 -569 9z m444 -100 c61
-17 141 -103 161 -174 28 -95 4 -200 -64 -277 -39 -44 -76 -60 -132 -56 l-44
3 -6 175 c-3 96 -11 193 -17 215 -31 108 0 142 102 114z"/>
<path d="M4230 2067 c0 -9 6 -20 14 -24 34 -20 36 -47 36 -525 l0 -473 -24
-50 c-12 -27 -30 -56 -39 -64 -10 -7 -17 -18 -17 -23 0 -5 144 -8 361 -6 l361
3 19 23 c24 30 46 104 55 182 9 77 -4 77 -51 1 -33 -55 -40 -61 -89 -75 -71
-21 -273 -22 -320 -2 l-34 14 -7 109 c-4 59 -5 207 -2 328 3 121 2 285 -2 365
-6 130 -5 148 11 176 10 17 18 34 18 37 0 3 -21 5 -47 4 -27 0 -92 3 -145 7
-87 8 -98 7 -98 -7z"/>
<path d="M2115 2061 c-171 -29 -362 -128 -449 -235 -47 -57 -102 -178 -128
-279 -42 -165 -8 -378 83 -535 54 -91 173 -204 260 -245 131 -63 213 -80 394
-82 l160 -1 3 -78 c4 -99 -17 -182 -69 -268 -41 -71 -95 -122 -219 -210 -52
-37 -76 -61 -78 -77 -4 -23 -3 -24 61 -19 164 13 354 162 412 322 53 147 57
186 64 582 l6 370 37 43 c21 24 36 47 34 50 -2 3 -117 5 -254 3 -209 -2 -251
-5 -256 -17 -11 -29 6 -41 71 -52 36 -7 73 -19 81 -27 9 -9 19 -42 23 -73 11
-86 10 -406 -1 -423 -7 -11 -29 -15 -93 -15 -77 1 -90 4 -171 43 -151 72 -237
180 -288 359 -18 63 -22 103 -21 203 1 221 48 358 164 471 75 74 144 102 249
102 166 -1 308 -100 399 -280 15 -30 28 -43 43 -43 20 0 21 3 15 68 -4 37 -7
122 -7 190 l0 122 -29 0 c-16 0 -61 7 -100 15 -85 18 -326 27 -396 16z"/>
<path d="M3483 2055 c-33 -15 -37 -23 -48 -93 -4 -24 -25 -92 -47 -150 -22
-59 -64 -178 -94 -265 -91 -267 -235 -584 -363 -797 -28 -47 -51 -90 -51 -96
0 -7 33 -17 78 -23 92 -14 92 -14 142 105 17 41 60 135 94 207 35 73 73 153
84 178 l19 46 63 6 c35 4 123 7 196 7 l132 0 24 -28 c21 -25 55 -97 102 -214
l15 -38 161 0 c105 0 159 3 155 10 -3 6 -13 10 -20 10 -34 0 -87 66 -140 174
-88 180 -313 682 -394 881 -41 98 -50 105 -108 80z m27 -246 c0 -44 67 -277
129 -449 16 -47 27 -88 23 -92 -9 -9 -336 -18 -349 -9 -9 5 67 259 149 493 28
81 48 104 48 57z"/>
<path d="M5576 2032 c-9 -17 -16 -39 -16 -48 0 -10 -25 -81 -56 -158 -119
-299 -311 -692 -391 -801 -44 -60 -61 -100 -48 -113 3 -4 50 -7 103 -7 l97 0
0 55 c0 47 7 67 45 134 25 43 55 85 68 93 18 12 56 15 195 14 94 -1 186 -6
202 -11 37 -12 87 -83 121 -171 48 -124 30 -114 187 -117 155 -3 158 -1 107
64 -49 60 -97 144 -144 251 -24 54 -63 139 -86 188 -23 50 -67 149 -97 220
-117 279 -167 393 -179 409 -7 10 -30 20 -52 23 -37 5 -42 3 -56 -25z m66
-434 c61 -144 118 -303 118 -330 0 -16 -15 -17 -181 -14 -99 2 -183 6 -186 9
-3 4 3 26 14 49 11 24 53 127 93 231 40 103 76 187 80 187 3 0 31 -60 62 -132z"/>
</g>
</svg>
